<svg xmlns="http://www.w3.org/2000/svg" width="1329" height="512" viewBox="0 0 1329 512">
  <defs>
    <filter id="shadow" x="-10%" y="-20%" width="120%" height="150%">
      <feDropShadow dx="0" dy="18" stdDeviation="24" flood-color="#111916" flood-opacity="0.10"/>
    </filter>
    <filter id="greenGlow" x="-60%" y="-60%" width="220%" height="220%">
      <feDropShadow dx="0" dy="22" stdDeviation="22" flood-color="#0f7c4c" flood-opacity="0.24"/>
    </filter>
  </defs>
  <rect width="1329" height="512" fill="#f5f7f3"/>
  <rect x="39" y="48" width="1251" height="420" rx="58" fill="#fff" stroke="#e7e9e5" stroke-width="2" filter="url(#shadow)"/>
  <rect x="407" y="32" width="515" height="92" rx="46" fill="#16231d"/>
  <text x="664.5" y="90" text-anchor="middle" font-family="Arial, Helvetica, sans-serif" font-size="41" font-weight="850" fill="#fff">Учет рабочей силы</text>
  <path d="M91 262 L119 234 M91 262 L119 290" fill="none" stroke="#68716c" stroke-width="6" stroke-linecap="round" stroke-linejoin="round"/>
  <path d="M1238 262 L1210 234 M1238 262 L1210 290" fill="none" stroke="#68716c" stroke-width="6" stroke-linecap="round" stroke-linejoin="round"/>
  <g font-family="Arial, Helvetica, sans-serif" text-anchor="middle">
    <text x="261" y="218" font-size="31" font-weight="800" fill="#707a73">Пт</text>
    <text x="261" y="283" font-size="68" font-weight="900" fill="#111916">19</text>
    <text x="261" y="325" font-size="30" font-weight="800" fill="#707a73">ИЮН</text>
    <text x="462" y="218" font-size="31" font-weight="800" fill="#707a73">Сб</text>
    <text x="462" y="283" font-size="68" font-weight="900" fill="#111916">20</text>
    <text x="462" y="325" font-size="30" font-weight="800" fill="#707a73">ИЮН</text>
    <rect x="566" y="173" width="190" height="173" rx="38" fill="#11814d" filter="url(#greenGlow)"/>
    <text x="661" y="218" font-size="31" font-weight="800" fill="#bfe8d2">Вс</text>
    <text x="661" y="286" font-size="72" font-weight="900" fill="#fff">21</text>
    <text x="661" y="326" font-size="31" font-weight="800" fill="#dbf4e7">ИЮН</text>
    <text x="864" y="218" font-size="31" font-weight="800" fill="#707a73">Пн</text>
    <text x="864" y="283" font-size="68" font-weight="900" fill="#111916">22</text>
    <text x="864" y="325" font-size="30" font-weight="800" fill="#707a73">ИЮН</text>
    <text x="1067" y="218" font-size="31" font-weight="800" fill="#707a73">Вт</text>
    <text x="1067" y="283" font-size="68" font-weight="900" fill="#111916">23</text>
    <text x="1067" y="325" font-size="30" font-weight="800" fill="#707a73">ИЮН</text>
  </g>
  <line x1="78" y1="377" x2="1251" y2="377" stroke="#edf0ec" stroke-width="3"/>
  <g font-family="Arial, Helvetica, sans-serif" font-size="36" font-weight="800" fill="#5f6962">
    <text x="346" y="440">▣  21 июня</text>
    <text x="576" y="440" fill="#b8beb9">·</text>
    <text x="626" y="440">♁  11 чел.</text>
    <text x="793" y="440" fill="#b8beb9">·</text>
    <text x="845" y="440">◷  11 смен</text>
  </g>
</svg>
